<svg width="18" height="18" viewBox="0 0 18 18" fill="none" xmlns="http://www.w3.org/2000/svg">
<path d="M17.953 6.80198C17.8352 6.42165 17.5119 6.15152 17.1295 6.11555L11.9342 5.6233L9.87982 0.605751C9.72835 0.23803 9.38337 0 9.00007 0C8.61678 0 8.2718 0.23803 8.12032 0.606611L6.06597 5.6233L0.869861 6.11555C0.488077 6.15238 0.165621 6.42165 0.0471027 6.80198C-0.0714151 7.18232 0.0380388 7.59948 0.326849 7.86244L4.25387 11.4563L3.09588 16.779C3.01115 17.1704 3.15672 17.575 3.46791 17.8097C3.63518 17.9358 3.83088 18 4.02823 18C4.19838 18 4.36717 17.9521 4.51864 17.8576L9.00007 15.0627L13.4799 17.8576C13.8077 18.0633 14.2209 18.0446 14.5314 17.8097C14.8427 17.5742 14.9882 17.1695 14.9034 16.779L13.7455 11.4563L17.6725 7.86316C17.9613 7.59948 18.0716 7.18303 17.953 6.80198Z" fill="#E03A76"/>
</svg>
