<svg width="16" height="14" viewBox="0 0 16 14" fill="none" xmlns="http://www.w3.org/2000/svg">
<path d="M7.35997 7.08428C7.39055 7.39551 7.64008 7.62712 7.931 7.62712C7.95077 7.62712 7.9707 7.62607 7.99078 7.6239C8.30652 7.58953 8.53605 7.29225 8.50341 6.9598L8.23839 4.25987C8.20574 3.92742 7.92341 3.68613 7.60759 3.72026C7.29184 3.75462 7.0623 4.0519 7.09488 4.38427L7.35997 7.08428Z" fill="white"/>
<path d="M10.9582 7.62381C10.9783 7.62598 10.9982 7.62703 11.0179 7.62703C11.3088 7.62703 11.5584 7.39534 11.589 7.08419L11.854 4.38425C11.8866 4.0518 11.6571 3.75453 11.3414 3.72024C11.0255 3.6862 10.7431 3.92757 10.7105 4.25986L10.4455 6.95979C10.4129 7.29224 10.6424 7.58952 10.9582 7.62381Z" fill="white"/>
<path d="M6.50672 10.2539C5.52566 10.2539 4.72754 11.094 4.72754 12.1267C4.72754 13.1596 5.52566 14 6.50672 14C7.48778 14 8.28598 13.1596 8.28598 12.1267C8.2859 11.0941 7.48778 10.2539 6.50672 10.2539ZM6.50672 12.7899C6.15954 12.7899 5.87713 12.4924 5.87713 12.1267C5.87713 11.7613 6.15954 11.464 6.50672 11.464C6.8539 11.464 7.13639 11.7613 7.13639 12.1267C7.13631 12.4924 6.8539 12.7899 6.50672 12.7899Z" fill="white"/>
<path d="M12.4423 10.2539C11.4613 10.2539 10.6631 11.094 10.6631 12.1267C10.6631 13.1596 11.4613 14 12.4423 14C13.4235 14 14.2217 13.1596 14.2217 12.1267C14.2217 11.0941 13.4235 10.2539 12.4423 10.2539ZM12.4423 12.7899C12.0952 12.7899 11.8127 12.4924 11.8127 12.1267C11.8127 11.7613 12.0952 11.464 12.4423 11.464C12.7896 11.464 13.0722 11.7613 13.0722 12.1267C13.0722 12.4924 12.7896 12.7899 12.4423 12.7899Z" fill="white"/>
<path d="M15.8799 2.43772C15.7711 2.30064 15.6032 2.22034 15.4252 2.22034H3.96806L3.487 0.4188C3.42109 0.172162 3.1924 0 2.93067 0H0.574792C0.257354 0 0 0.250593 0 0.559693C0 0.868793 0.257354 1.11939 0.574792 1.11939H2.48624L2.96302 2.90458C2.96562 2.91578 2.96861 2.9269 2.97191 2.93787L4.7461 9.5812C4.81201 9.82784 5.0407 10 5.30242 10H13.6464C13.9081 10 14.1368 9.82784 14.2027 9.5812L15.9816 2.92085C16.0262 2.75324 15.9887 2.57481 15.8799 2.43772ZM13.2019 8.88076H5.74677L4.26695 3.3398H14.6817L13.2019 8.88076Z" fill="white"/>
</svg>
