<svg width="16" height="14" viewBox="0 0 16 14" fill="none" xmlns="http://www.w3.org/2000/svg">
<path d="M3.64645 13.3536C3.84171 13.5488 4.15829 13.5488 4.35355 13.3536L7.53553 10.1716C7.7308 9.97631 7.7308 9.65973 7.53553 9.46447C7.34027 9.2692 7.02369 9.2692 6.82843 9.46447L4 12.2929L1.17157 9.46447C0.976311 9.2692 0.659728 9.2692 0.464466 9.46447C0.269204 9.65973 0.269204 9.97631 0.464466 10.1716L3.64645 13.3536ZM3.5 1L3.5 13H4.5L4.5 1H3.5Z" fill="white"/>
<path d="M12.3536 0.646446C12.1583 0.451184 11.8417 0.451184 11.6464 0.646446L8.46447 3.82843C8.2692 4.02369 8.2692 4.34027 8.46447 4.53553C8.65973 4.7308 8.97631 4.7308 9.17157 4.53553L12 1.70711L14.8284 4.53553C15.0237 4.7308 15.3403 4.7308 15.5355 4.53553C15.7308 4.34027 15.7308 4.02369 15.5355 3.82843L12.3536 0.646446ZM12.5 13V1H11.5V13H12.5Z" fill="white"/>
</svg>
