<svg width="36" height="35" viewBox="0 0 36 35" fill="none" xmlns="http://www.w3.org/2000/svg">
<path d="M30.8466 1.71632L30.8463 1.71616C29.4663 0.911339 27.9005 0.5 26.1799 0.5C23.9052 0.5 21.4999 1.22517 19.2314 2.6176L19.2313 2.61765L18.2627 3.2119L18.0013 3.37231L17.7398 3.21193L16.7711 2.61774C16.7711 2.61772 16.7711 2.6177 16.771 2.61768C14.4996 1.22511 12.0963 0.5 9.82002 0.5C8.10114 0.5 6.533 0.911379 5.15327 1.71614L5.15319 1.71618C3.02763 2.95545 1.54167 5.01886 0.875248 7.71993L30.8466 1.71632ZM30.8466 1.71632C32.9747 2.95553 34.4593 5.01876 35.1247 7.71995M30.8466 1.71632L35.1247 7.71995M3.1923 19.9078L3.19233 19.9079C4.70933 22.3808 7.68044 25.4274 10.7038 28.1894C13.5289 30.7703 16.3609 33.0683 18.0012 34.3636C19.6405 33.0683 22.4718 30.7703 25.2967 28.1894C28.3198 25.4274 31.2915 22.3809 32.8101 19.9078H3.1923ZM3.1923 19.9078C0.768171 15.957 -0.0598353 11.5125 0.875231 7.72L3.1923 19.9078ZM35.1247 7.71995C36.0589 11.5126 35.2341 15.9572 32.8102 19.9077L35.1247 7.71995Z" stroke="#E03A76"/>
</svg>
