<svg width="13" height="13" viewBox="0 0 13 13" fill="none" xmlns="http://www.w3.org/2000/svg">
<path d="M12.8179 11.17L9.70543 7.95456C9.48224 7.72387 9.20329 7.63151 9.08244 7.74946C8.96116 7.86656 8.68202 7.77443 8.45883 7.54374L8.41431 7.49758C9.80735 5.66542 9.67216 3.04217 7.99932 1.36933C6.17358 -0.456404 3.21337 -0.456404 1.38786 1.36933C-0.43788 3.19507 -0.43788 6.15487 1.38786 7.98061C3.08919 9.68217 5.77443 9.79613 7.61034 8.32653L7.62988 8.34691C7.85266 8.5776 7.93565 8.85946 7.81399 8.97675C7.69291 9.09409 7.77529 9.37614 7.99871 9.60641L11.1095 12.8231C11.3327 13.0532 11.7005 13.06 11.9314 12.8367L12.8044 11.9919C13.0345 11.7691 13.0407 11.4015 12.8179 11.17ZM6.97197 6.95318C5.71557 8.20977 3.67104 8.20977 2.41483 6.9536C1.15843 5.6972 1.15862 3.65244 2.41483 2.39627C3.67104 1.13987 5.71557 1.14006 6.97155 2.39646C8.22814 3.65267 8.22814 5.69701 6.97197 6.95318Z" fill="white"/>
</svg>
