<svg width="30" height="26" viewBox="0 0 30 26" fill="none" xmlns="http://www.w3.org/2000/svg">
<path d="M26.392 4.8745H22.0548V4.42892C22.0548 2.43821 20.4392 0.822571 18.4485 0.822571H11.5507C9.55922 0.822571 7.94438 2.43821 7.94438 4.42892V4.8745H3.60635C1.61484 4.8745 0 6.48934 0 8.48085V21.5711C0 23.5618 1.61484 25.1774 3.60635 25.1774H26.3937C28.3852 25.1774 30 23.5618 30 21.5711V8.48085C29.9984 6.48854 28.3836 4.8745 26.392 4.8745ZM14.9984 21.4365C11.2414 21.4365 8.18641 18.3815 8.18641 14.6245C8.18641 10.8683 11.2414 7.81247 14.9984 7.81247C18.7554 7.81247 21.8104 10.8675 21.8104 14.6245C21.8104 18.3815 18.7546 21.4365 14.9984 21.4365ZM18.6047 14.6245C18.6047 16.6112 16.9859 18.2308 14.9984 18.2308C13.0109 18.2308 11.3921 16.6112 11.3921 14.6245C11.3921 12.637 13.0109 11.0181 14.9984 11.0181C16.9859 11.0181 18.6047 12.637 18.6047 14.6245Z" fill="white"/>
</svg>
