<svg width="15" height="21" viewBox="0 0 15 21" fill="none" xmlns="http://www.w3.org/2000/svg">
<path d="M12.8477 2.12103V13.7173C12.8477 16.585 10.454 18.9093 7.5 18.9093C4.54463 18.9093 2.15233 16.5853 2.15233 13.7106V5.2302C2.15233 3.50206 3.58189 2.10388 5.35922 2.0908C7.1314 2.10388 8.5662 3.50505 8.5662 5.2257V13.6471C8.5662 14.2225 8.08345 14.691 7.49097 14.691C6.89638 14.691 6.41574 14.2249 6.41574 13.6493V4.21173H4.2634V13.6493C4.2634 15.3803 5.70845 16.7816 7.49097 16.7816C9.27168 16.7816 10.7185 15.3776 10.7185 13.647V5.2257C10.7185 2.35834 8.3335 0.0264112 5.38439 0L5.3342 0.000245002C2.37918 0.0263132 0 2.35599 0 5.2302V13.7107C0 17.74 3.35595 21 7.5 21C11.6426 21 15 17.7398 15 13.7173V2.12103H12.8477Z" fill="#6A6A6A" fill-opacity="0.5"/>
</svg>
