<svg width="36" height="33" viewBox="0 0 36 33" fill="none" xmlns="http://www.w3.org/2000/svg">
<path d="M34.9591 12.7916L34.9587 12.7905C34.8567 12.4887 34.5623 12.2417 34.173 12.2081L34.1724 12.2081L23.7818 11.3056L23.1954 11.2547L22.9553 10.7172L18.8475 1.52044C18.8474 1.52015 18.8472 1.51985 18.8471 1.51956C18.7124 1.22067 18.3902 1 18.0001 1C17.6101 1 17.2879 1.22066 17.1532 1.52112C17.1532 1.52115 17.1531 1.52119 17.1531 1.52122L13.045 10.7173L12.8049 11.2547L12.2184 11.3056L1.8278 12.208C1.82761 12.208 1.82741 12.208 1.82722 12.208C1.43821 12.2426 1.1441 12.4889 1.04099 12.7922C0.940169 13.0888 1.02685 13.4234 1.29447 13.6467L1.29639 13.6484L9.15042 20.237L9.62321 20.6336L9.48071 21.234L7.16498 30.9914C7.16495 30.9916 7.16492 30.9917 7.16489 30.9918C7.09316 31.2962 7.21029 31.625 7.50436 31.8284L34.9591 12.7916ZM34.9591 12.7916C35.0596 13.0878 34.9735 13.4226 34.7031 13.6489L34.7023 13.6496L26.8483 20.2369L26.3754 20.6335L26.5179 21.234L28.8338 30.9919C28.9053 31.2941 28.7892 31.624 28.4931 31.8293L28.493 31.8293C28.1901 32.0394 27.7796 32.0569 27.4585 31.8721L27.4562 31.8708L18.4966 26.7468L18.0002 26.463L17.5038 26.7468L8.54098 31.8707L8.54053 31.871M34.9591 12.7916L8.54053 31.871M8.54053 31.871C8.39028 31.957 8.22418 32 8.05646 32C7.8607 32 7.66848 31.9418 7.50456 31.8286L8.54053 31.871Z" stroke="#E03A76" stroke-width="2"/>
</svg>
