<svg width="36" height="33" viewBox="0 0 36 33" xmlns="http://www.w3.org/2000/svg">
<path d="M35.9061 12.4703C35.6704 11.773 35.0239 11.2778 34.2589 11.2118L23.8684 10.3094L19.7596 1.11054C19.4567 0.436388 18.7667 0 18.0001 0C17.2336 0 16.5436 0.436388 16.2406 1.11212L12.1319 10.3094L1.73972 11.2118C0.976154 11.2794 0.331241 11.773 0.0942054 12.4703C-0.14283 13.1676 0.0760776 13.9324 0.653697 14.4145L8.50773 21.0031L6.19176 30.7616C6.02229 31.4791 6.31344 32.2208 6.93583 32.6511C7.27037 32.8823 7.66177 33 8.05646 33C8.39677 33 8.73433 32.9123 9.03729 32.7388L18.0001 27.6149L26.9597 32.7388C27.6153 33.1161 28.4418 33.0817 29.0628 32.6511C29.6855 32.2194 29.9763 31.4775 29.8069 30.7616L27.4909 21.0031L35.3449 14.4158C35.9226 13.9324 36.1431 13.1689 35.9061 12.4703Z" fill="#E03A76"/>
</svg>
